<svg width="148" height="148" fill="none" xmlns="http://www.w3.org/2000/svg"><path fill-rule="evenodd" clip-rule="evenodd" d="M130 98.816V50.182a13.86 13.86 0 0 0-6.939-12.007L80.936 13.858a13.876 13.876 0 0 0-13.872 0L24.933 38.175A13.87 13.87 0 0 0 18 50.182v48.634a13.879 13.879 0 0 0 6.933 12.014l42.13 24.317a13.908 13.908 0 0 0 13.873 0l42.125-24.317A13.882 13.882 0 0 0 130 98.816Z" fill="#0A092D"/><path fill-rule="evenodd" clip-rule="evenodd" d="M130 50.182v48.634a13.882 13.882 0 0 1-6.939 12.014l-42.125 24.317a13.908 13.908 0 0 1-13.872 0L24.933 110.83A13.889 13.889 0 0 1 18 98.816V50.182a13.865 13.865 0 0 1 6.933-12.007l42.13-24.317a13.875 13.875 0 0 1 13.873 0l42.125 24.317A13.864 13.864 0 0 1 130 50.182Zm-57.486 75.512c.448.261.958.399 1.477.398a2.943 2.943 0 0 0 1.483-.391l42.13-24.317a2.966 2.966 0 0 0 1.477-2.567V50.183a2.967 2.967 0 0 0-1.483-2.567L75.474 23.299a2.992 2.992 0 0 0-2.96 0l-42.13 24.317a2.964 2.964 0 0 0-1.477 2.567V98.81a2.961 2.961 0 0 0 1.476 2.567l42.131 24.317Z" fill="#51CFFF"/><path d="m43.651 85.085-3.097 1.18a.584.584 0 0 0-.332.34l-1.2 3.066a.585.585 0 0 1-1.051 0l-1.177-3.105a.587.587 0 0 0-.34-.332l-3.08-1.204a.585.585 0 0 1-.272-.878.585.585 0 0 1 .271-.216l3.09-1.188a.563.563 0 0 0 .339-.332l1.169-3.042a.586.586 0 0 1 1.09 0l1.177 3.097a.602.602 0 0 0 .34.34l3.08 1.205a.586.586 0 0 1-.007 1.069ZM112.675 64.955l-2.518.964a.453.453 0 0 0-.27.27l-.979 2.507a.476.476 0 0 1-.888 0l-.966-2.513a.468.468 0 0 0-.271-.277l-2.479-.977a.477.477 0 0 1 0-.887l2.518-.958a.48.48 0 0 0 .277-.276l.972-2.507a.48.48 0 0 1 .448-.301.48.48 0 0 1 .447.3l.96 2.52a.474.474 0 0 0 .277.27l2.511.978a.478.478 0 0 1 .286.457.481.481 0 0 1-.325.43Z" fill="#fff"/><path fill-rule="evenodd" clip-rule="evenodd" d="M95.4 43c-1.29 0-2.4.877-2.4 2.026v17.486c0 1.15 1.11 2.026 2.4 2.026 1.288 0 2.399-.876 2.399-2.026v-5.918l13.274-4.6c.946-.328 1.579-1.124 1.539-2.019-.039-.893-.739-1.646-1.708-1.915l-13.221-3.662C97.365 43.572 96.44 43 95.398 43Z" fill="#F6406C"/><path d="M48 70c0-5.523 4.477-10 10-10h29a3 3 0 1 1 0 6H58a4 4 0 0 0 0 8h32v6H58c-5.523 0-10-4.477-10-10Z" fill="#FFCD1F"/><path d="M100 84c0-5.523-4.477-10-10-10H58v6h32a4 4 0 0 1 0 8H58v6h32c5.523 0 10-4.477 10-10Z" fill="#FFCD1F"/><circle cx="54.5" cy="90.5" r="3.75" stroke="#FFCD1F" stroke-width="5.5"/></svg>